{"title":"The Egyptian 1954 BDRip x264 AC3 PsiX","uid":8598956,"size":1899843543,"categoryP":"video","categoryS":"movies","magnet":"?xt=urn:btih:66d995c863627a1050473864db330d6f1eced026&amp;dn=The+Egyptian+1954+BDRip+x264+AC3+PsiX&amp;tr=udp%3A%2F%2Ftracker.openbittorrent.com%3A80&amp;tr=udp%3A%2F%2Fopen.demonii.com%3A1337&amp;tr=udp%3A%2F%2Ftracker.coppersurfer.tk%3A6969&amp;tr=udp%3A%2F%2Fexodus.desync.com%3A6969","seeders":1,"leechers":1,"uploader":"sakhslitsa","files":2,"time":1371834227,"description":"The Egyptian 1954 BDRip x264 AC3 PsiX\n\n &lt;a href=&quot;\nhttp://s22.postimg.org/pw91ykjo1/image.png&quot; rel=&quot;nofollow&quot; target=&quot;_NEW&quot;&gt;\nhttp://s22.postimg.org/pw91ykjo1/image.png&lt;/a&gt;\n\n &lt;a href=&quot;\nhttp://s22.postimg.org/5q5jzoo0h/image.png&quot; rel=&quot;nofollow&quot; target=&quot;_NEW&quot;&gt;\nhttp://s22.postimg.org/5q5jzoo0h/image.png&lt;/a&gt;\n\n &lt;a href=&quot;\nhttp://s22.postimg.org/bsd6q6cgh/image.png&quot; rel=&quot;nofollow&quot; target=&quot;_NEW&quot;&gt;\nhttp://s22.postimg.org/bsd6q6cgh/image.png&lt;/a&gt;\n\n\n\n\n\nThe.Egyptian.1954.BDRip.x264.AC3-PsiX.mkv\n\n\nFormat : Matroska\nFormat version : Version 2\nFile size : 1.77 GiB\nDuration : 2h 19mn\nOverall bit rate : 1 814 Kbps\nEncoded date : UTC 2013-06-19 19:37:28\nWriting application : mkvmerge v6.2.0 ('Promised Land') built on Apr 28 2013 12:22:01\nWriting library : libebml v1.3.0 + libmatroska v1.4.0\n\nVideo\nID : 1\nFormat : AVC\nFormat/Info : Advanced Video Codec\nFormat profile : &lt;a class=&quot;__cf_email__&quot; href=&quot;/cdn-cgi/l/email-protection&quot; data-cfemail=&quot;1850717f7058542c3629&quot;&gt;[email&amp;#160;protected]&lt;/a&gt;&lt;script cf-hash='f9e31' type=&quot;text/javascript&quot;&gt;\n/* &lt;![CDATA[ */!function(){try{var t=&quot;currentScript&quot;in document?document.currentScript:function(){for(var t=document.getElementsByTagName(&quot;script&quot;),e=t.length;e--;)if(t[e].getAttribute(&quot;cf-hash&quot;))return t[e]}();if(t&amp;&amp;t.previousSibling){var e,r,n,i,c=t.previousSibling,a=c.getAttribute(&quot;data-cfemail&quot;);if(a){for(e=&quot;&quot;,r=parseInt(a.substr(0,2),16),n=2;a.length-n;n+=2)i=parseInt(a.substr(n,2),16)^r,e+=String.fromCharCode(i);e=document.createTextNode(e),c.parentNode.replaceChild(e,c)}}}catch(u){}}();/* ]]&gt; */&lt;/script&gt;\nFormat settings, CABAC : Yes\nFormat settings, ReFrames : 7 frames\nCodec ID : V_MPEG4/ISO/AVC\nDuration : 2h 19mn\nBit rate : 1 364 Kbps\nWidth : 720 pixels\nHeight : 282 pixels\nDisplay aspect ratio : 2.553\nFrame rate mode : Constant\nFrame rate : 23.976 fps\nColor space : YUV\nChroma subsampling : 4:2:0\nBit depth : 8 bits\nScan type : Progressive\nBits/(Pixel*Frame) : 0.280\nStream size : 1.30 GiB (73%)\nWriting library : x264 core 133 r2334 a3ac64b\n\n\nAudio\nID : 2\nFormat : AC-3\nFormat/Info : Audio Coding 3\nMode extension : CM (complete main)\nFormat settings, Endianness : Big\nCodec ID : A_AC3\nDuration : 2h 19mn\nBit rate mode : Constant\nBit rate : 448 Kbps\nChannel(s) : 6 channels\nChannel positions : Front: L C R, Side: L R, LFE\nSampling rate : 48.0 KHz\nBit depth : 16 bits\nCompression mode : Lossy\nStream size : 448 MiB (25%)\nLanguage : English\nDefault : Yes\nForced : No\n\n\n\n\nEncoded............: PsiX\nSource.............: Blu-ray Remux (20 GB)\nSubs..........No\n","torrent":{"xt":"urn:btih:66d995c863627a1050473864db330d6f1eced026","amp;dn":"The+Egyptian+1954+BDRip+x264+AC3+PsiX","amp;tr":["udp%3A%2F%2Ftracker.openbittorrent.com%3A80","udp%3A%2F%2Fopen.demonii.com%3A1337","udp%3A%2F%2Ftracker.coppersurfer.tk%3A6969","udp%3A%2F%2Fexodus.desync.com%3A6969"],"infoHash":"66d995c863627a1050473864db330d6f1eced026","infoHashBuffer":{"type":"Buffer","data":[102,217,149,200,99,98,122,16,80,71,56,100,219,51,13,111,30,206,208,38]},"announce":[],"urlList":[]}}